<?xml version="1.0" encoding="UTF-8"?>
<svg version="1.1" xmlns="http://www.w3.org/2000/svg" width="380" height="144">
<path d="M0 0 C6.84184583 4.89175451 12.29772545 10.53547882 14 19 C14.88630651 28.09553889 13.05648676 35.08778914 8.25 42.8125 C2.31063727 48.58688043 -4.55775836 52.00821067 -12.875 52.3125 C-21.24301806 52.09954146 -28.01929948 48.84505577 -34 43 C-39.76985287 35.8659086 -41.61463784 28.92408342 -40.80859375 19.84375 C-39.36908647 12.20678508 -34.81117726 5.93668862 -28.5 1.5625 C-19.3701784 -3.93060933 -9.66789391 -4.99202784 0 0 Z M-24 13 C-27.56791534 17.11682539 -28.90608122 20.55271094 -29 26 C-28.01299757 30.9729738 -26.06500451 35.00454781 -21.87109375 38.08984375 C-16.93756445 40.48966072 -11.83558323 40.58877198 -6.6875 38.9375 C-2.94733957 36.24110527 -0.08692885 33.1738577 2 29 C2.56735892 24.34951706 2.4598631 20.90269423 0.3125 16.6875 C-3.24429889 12.55392291 -5.84518513 9.94879519 -11.3125 9 C-16.34581416 8.65605687 -19.98757087 9.98613921 -24 13 Z " fill="#EA2227" transform="translate(41,4)"/>
<path d="M0 0 C6.49066929 4.66891842 11.12142547 10.20452559 12.984375 18.0703125 C14.11473284 26.72339663 12.42791363 34.53885382 7.32421875 41.671875 C1.25712959 47.91533303 -5.50259911 51.00127732 -14.05078125 52.109375 C-23.05510071 51.02264679 -30.72711235 47.63069522 -36.67578125 40.671875 C-41.32574699 33.31844081 -42.59302972 26.31720542 -41.67578125 17.671875 C-39.23143784 9.91135869 -34.46582186 3.4743814 -27.42578125 -0.64453125 C-18.30339047 -4.84024624 -8.79284172 -5.04066288 0 0 Z M-26.98828125 15.234375 C-29.85661026 19.37751691 -30.01131958 22.72268458 -29.67578125 27.671875 C-27.59393061 32.98059414 -25.11944675 36.5055801 -19.92578125 38.984375 C-14.39421216 40.15451461 -10.36433287 39.56394001 -5.36328125 36.921875 C-1.2724953 33.49703095 0.02361402 31.0031245 1.19921875 25.796875 C1.58686963 21.41724483 0.56147375 18.49685936 -1.67578125 14.671875 C-5.34947116 10.89071012 -8.61387829 8.53101812 -13.92578125 8.359375 C-19.88721124 8.43592627 -23.04791089 10.86801865 -26.98828125 15.234375 Z " fill="#2C7EAB" transform="translate(93.67578125,60.328125)"/>
<path d="M0 0 C12.54 0 25.08 0 38 0 C38 3.96 38 7.92 38 12 C29.42 12 20.84 12 12 12 C12 14.97 12 17.94 12 21 C19.26 21 26.52 21 34 21 C34 24.96 34 28.92 34 33 C26.74 33 19.48 33 12 33 C12 36.3 12 39.6 12 43 C20.58 43 29.16 43 38 43 C38 46.96 38 50.92 38 55 C25.46 55 12.92 55 0 55 C0 36.85 0 18.7 0 0 Z " fill="#EA2B7B" transform="translate(248,57)"/>
<path d="M0 0 C1.14855469 0.0928125 2.29710938 0.185625 3.48046875 0.28125 C4.64191406 0.3534375 5.80335937 0.425625 7 0.5 C8.32064453 0.63921875 8.32064453 0.63921875 9.66796875 0.78125 C8.02188073 5.4557762 5.57277448 9.46353779 2.98046875 13.65625 C2.26395142 14.82232788 2.26395142 14.82232788 1.53295898 16.01196289 C-3.09013598 23.4845588 -7.89538839 30.83607912 -12.71386719 38.18359375 C-17.11348312 44.89540035 -21.436915 51.64926846 -25.70727539 58.44384766 C-28.50234161 62.88833199 -31.31183131 67.3229787 -34.140625 71.74609375 C-35.13787598 73.30589966 -35.13787598 73.30589966 -36.15527344 74.8972168 C-37.51846607 77.02100084 -38.88757693 79.14099826 -40.26269531 81.25708008 C-43.66927243 86.51666312 -46.94506985 91.79756541 -50.0078125 97.265625 C-50.60029785 98.28873779 -51.1927832 99.31185059 -51.80322266 100.3659668 C-52.9168897 102.2981712 -53.99349486 104.25239804 -55.02490234 106.22973633 C-56.62163162 108.94833399 -57.84136347 110.83822044 -60.33203125 112.78125 C-64.77425227 113.5544069 -68.87391121 113.34922461 -73.33203125 112.78125 C-72.14271093 109.66050584 -70.86372764 106.79879048 -69.1171875 103.953125 C-68.6843042 103.24510742 -68.2514209 102.53708984 -67.80541992 101.80761719 C-67.33982666 101.05641602 -66.8742334 100.30521484 -66.39453125 99.53125 C-65.90509033 98.7362207 -65.41564941 97.94119141 -64.91137695 97.12207031 C-60.79255429 90.46072381 -56.55126473 83.88276209 -52.27734375 77.3203125 C-48.94891468 72.2040156 -45.66977847 67.05670354 -42.39453125 61.90625 C-41.50241943 60.50379028 -41.50241943 60.50379028 -40.59228516 59.07299805 C-37.819243 54.70936793 -35.05247936 50.34196775 -32.30078125 45.96484375 C-26.12654685 36.14529349 -19.85435523 26.39608464 -13.49438477 16.69555664 C-12.89553467 15.78153076 -12.29668457 14.86750488 -11.6796875 13.92578125 C-11.10259033 13.0558252 -10.52549316 12.18586914 -9.9309082 11.28955078 C-8.31951414 8.82906324 -8.31951414 8.82906324 -7.02026367 6.34716797 C-4.08511195 0.95782226 -4.08511195 0.95782226 0 0 Z " fill="#EA2126" transform="translate(86.33203125,0.21875)"/>
<path d="M0 0 C0.99 0.66 1.98 1.32 3 2 C2.49477778 6.37859255 -0.17827222 8.81651224 -3 12 C-5.23611467 11.50308563 -7.19441863 10.91322371 -9.29296875 9.9765625 C-12.24309013 8.91230515 -14.49944617 8.73277932 -17.625 8.75 C-18.56601562 8.74484375 -19.50703125 8.7396875 -20.4765625 8.734375 C-23.24575221 8.82832693 -23.24575221 8.82832693 -26 11 C-25.50243908 13.75641416 -25.50243908 13.75641416 -24 16 C-22.21054036 16.19391082 -20.42039203 16.38303534 -18.62768555 16.54418945 C-11.52526878 17.2115997 -5.38805597 17.86497428 0 23 C3.0465436 26.73447281 3.74835896 30.21882017 4 35 C3.00681507 39.86660615 0.90661506 43.88171533 -3 47 C-13.46153845 52.3127562 -21.18371927 51.52730956 -32.046875 48.16796875 C-34.80924271 47.07544501 -36.74700074 45.90848724 -39 44 C-37.38467991 40.03512341 -35.59762839 37.37443474 -32 35 C-28.91059085 35.44584768 -26.07224301 36.303766 -23.0859375 37.20703125 C-18.5774217 38.3655486 -15.5145372 38.09222674 -11 37 C-9.6220443 34.85506896 -9 33.55694213 -9 31 C-10.59328125 30.85304688 -10.59328125 30.85304688 -12.21875 30.703125 C-29.82645158 28.9130052 -29.82645158 28.9130052 -35.9375 21.875 C-39.06434828 17.516363 -39.53533363 14.3037684 -39 9 C-37.18007984 3.84355955 -34.43794532 1.13266729 -30 -2 C-19.85316069 -6.03055006 -9.6817958 -4.62162378 0 0 Z " fill="#652F8E" transform="translate(376,61)"/>
<path d="M0 0 C3.96 0 7.92 0 12 0 C12.01981934 1.06959961 12.03963867 2.13919922 12.06005859 3.24121094 C12.1362098 7.21475512 12.22491242 11.18793766 12.31738281 15.16113281 C12.35563327 16.87981011 12.39049303 18.59856638 12.421875 20.31738281 C12.46761128 22.7900004 12.52559084 25.26207613 12.5859375 27.734375 C12.59748871 28.50118591 12.60903992 29.26799683 12.62094116 30.05804443 C12.7174476 35.36438358 12.7174476 35.36438358 15 40 C18.88787472 41.64487007 21.17006 42.18791094 25.3125 41.25 C27.97613989 40.01109773 29.56133344 39.18558529 30.60522461 36.36425781 C31.17072292 32.97756294 31.23724311 29.59685553 31.31640625 26.171875 C31.33718735 25.42286926 31.35796844 24.67386353 31.37937927 23.90216064 C31.44457088 21.51819712 31.50361783 19.13412688 31.5625 16.75 C31.60571416 15.13019746 31.64932937 13.51040557 31.69335938 11.890625 C31.80022096 7.92719168 31.90157333 3.9636514 32 0 C35.96 0 39.92 0 44 0 C44.07461471 4.98043609 44.12881987 9.96054089 44.16479492 14.94140625 C44.17980505 16.63287022 44.20021963 18.32429578 44.22631836 20.015625 C44.26304686 22.45843024 44.27980411 24.9007173 44.29296875 27.34375 C44.30845261 28.08991577 44.32393646 28.83608154 44.33988953 29.6048584 C44.34248569 37.85580396 41.60261237 44.25962773 35.953125 50.30078125 C31.44738908 54.2207715 26.10828278 55.61820119 20.14453125 55.34765625 C14.52461216 54.43659469 8.92123062 52.5227606 5.0625 48.1875 C0.7877386 41.58105056 -0.44362216 36.73975079 -0.29296875 29.00390625 C-0.28872391 28.17036118 -0.28447906 27.3368161 -0.28010559 26.47801208 C-0.26343314 23.83916689 -0.22580358 21.20111084 -0.1875 18.5625 C-0.17243833 16.76368297 -0.15875253 14.96485387 -0.14648438 13.16601562 C-0.11356728 8.77704385 -0.06186567 4.38865531 0 0 Z " fill="#38B249" transform="translate(111,57)"/>
<path d="M0 0 C14.52 0 29.04 0 44 0 C44 3.96 44 7.92 44 12 C38.72 12 33.44 12 28 12 C28 26.19 28 40.38 28 55 C24.04 55 20.08 55 16 55 C16 40.81 16 26.62 16 12 C10.72 12 5.44 12 0 12 C0 8.04 0 4.08 0 0 Z " fill="#FAAD40" transform="translate(290,57)"/>
<path d="M0 0 C14.52 0 29.04 0 44 0 C44 3.96 44 7.92 44 12 C38.72 12 33.44 12 28 12 C28 26.19 28 40.38 28 55 C24.04 55 20.08 55 16 55 C16 40.81 16 26.62 16 12 C10.72 12 5.44 12 0 12 C0 8.04 0 4.08 0 0 Z " fill="#25A7DF" transform="translate(159,57)"/>
<path d="M0 0 C3.96 0 7.92 0 12 0 C12 14.19 12 28.38 12 43 C20.25 43 28.5 43 37 43 C37 46.96 37 50.92 37 55 C24.79 55 12.58 55 0 55 C0 36.85 0 18.7 0 0 Z " fill="#F05A29" transform="translate(207,57)"/>
<path d="M0 0 C1.65 0 3.3 0 5 0 C5 2.31 5 4.62 5 7 C6.65 7 8.3 7 10 7 C10 4.69 10 2.38 10 0 C16.27 0 22.54 0 29 0 C29 1.65 29 3.3 29 5 C26.03 5 23.06 5 20 5 C20 5.66 20 6.32 20 7 C22.31 7 24.62 7 27 7 C27 8.65 27 10.3 27 12 C25.02 12 23.04 12 21 12 C20.67 12.66 20.34 13.32 20 14 C22.97 14 25.94 14 29 14 C29 15.65 29 17.3 29 19 C22.73 19 16.46 19 10 19 C9.67 16.69 9.34 14.38 9 12 C8.01 12 7.02 12 6 12 C5.67 14.31 5.34 16.62 5 19 C3.35 19 1.7 19 0 19 C0 12.73 0 6.46 0 0 Z " fill="#58585B" transform="translate(95,36)"/>
<path d="M0 0 C1.98 0 3.96 0 6 0 C7.17094005 2.7899439 8.33690927 5.58178597 9.5 8.375 C9.83386719 9.1690625 10.16773438 9.963125 10.51171875 10.78125 C10.82753906 11.54179687 11.14335937 12.30234375 11.46875 13.0859375 C11.76201172 13.7876709 12.05527344 14.4894043 12.35742188 15.21240234 C13 17 13 17 13 19 C11.02 19 9.04 19 7 19 C6.67 18.01 6.34 17.02 6 16 C3.69 15.67 1.38 15.34 -1 15 C-1.33 16.32 -1.66 17.64 -2 19 C-3.65 19 -5.3 19 -7 19 C-4.94235079 12.54646385 -2.57616518 6.2638737 0 0 Z M2 8 C2 8.66 2 9.32 2 10 C2.66 10 3.32 10 4 10 C4 9.34 4 8.68 4 8 C3.34 8 2.68 8 2 8 Z " fill="#58595B" transform="translate(283,125)"/>
<path d="M0 0 C1.65 0 3.3 0 5 0 C6.17620825 2.41242713 7.3410956 4.82927691 8.5 7.25 C8.83386719 7.93191406 9.16773438 8.61382812 9.51171875 9.31640625 C11.19374744 12.8520992 12 15.01929286 12 19 C10.35 19 8.7 19 7 19 C6.67 17.68 6.34 16.36 6 15 C3.69 15.33 1.38 15.66 -1 16 C-1.33 16.99 -1.66 17.98 -2 19 C-3.98 19 -5.96 19 -8 19 C-6.85508207 16.2079547 -5.70910806 13.41635112 -4.5625 10.625 C-4.23701172 9.8309375 -3.91152344 9.036875 -3.57617188 8.21875 C-3.10727539 7.07792969 -3.10727539 7.07792969 -2.62890625 5.9140625 C-2.34088135 5.2123291 -2.05285645 4.5105957 -1.75610352 3.78759766 C-1.21398164 2.50590041 -0.62235745 1.24471489 0 0 Z M2 7 C1.67 7.99 1.34 8.98 1 10 C1.99 9.67 2.98 9.34 4 9 C3.34 8.34 2.68 7.68 2 7 Z " fill="#58595B" transform="translate(368,125)"/>
<path d="M0 0 C10.19694397 -0.48556876 10.19694397 -0.48556876 13.6875 1.625 C15.38115483 4.68970874 15.51410062 6.54818157 15 10 C13.875 11.8125 13.875 11.8125 12 13 C8.8125 13.6875 8.8125 13.6875 6 14 C5.67 15.65 5.34 17.3 5 19 C3.35 19 1.7 19 0 19 C0 12.73 0 6.46 0 0 Z M5 4 C5 5.65 5 7.3 5 9 C6.65 8.67 8.3 8.34 10 8 C10 7.01 10 6.02 10 5 C8.35 4.67 6.7 4.34 5 4 Z " fill="#58595B" transform="translate(347,125)"/>
<path d="M0 0 C5.28 0 10.56 0 16 0 C16 1.65 16 3.3 16 5 C14.35 5 12.7 5 11 5 C11 9.62 11 14.24 11 19 C9.02 19 7.04 19 5 19 C5 14.38 5 9.76 5 5 C3.35 5 1.7 5 0 5 C0 3.35 0 1.7 0 0 Z " fill="#58595B" transform="translate(294,125)"/>
<path d="M0 0 C1.98 0 3.96 0 6 0 C6 4.62 6 9.24 6 14 C8.97 14 11.94 14 15 14 C15 15.65 15 17.3 15 19 C10.05 19 5.1 19 0 19 C0 12.73 0 6.46 0 0 Z " fill="#58595B" transform="translate(322,125)"/>
<path d="M0 0 C4.95 0 9.9 0 15 0 C15 1.65 15 3.3 15 5 C13.35 5 11.7 5 10 5 C10 9.62 10 14.24 10 19 C8.35 19 6.7 19 5 19 C5 14.38 5 9.76 5 5 C3.35 5 1.7 5 0 5 C0 3.35 0 1.7 0 0 Z " fill="#58585A" transform="translate(79,36)"/>
<path d="M0 0 C1.98 0 3.96 0 6 0 C6 6.27 6 12.54 6 19 C4.02 19 2.04 19 0 19 C0 12.73 0 6.46 0 0 Z " fill="#58595B" transform="translate(338,125)"/>
</svg>
